<?xml version="1.0" encoding="UTF-8" standalone="no"?>
<!DOCTYPE svg PUBLIC "-//W3C//DTD SVG 1.1//EN"
 "http://www.w3.org/Graphics/SVG/1.1/DTD/svg11.dtd">
<!-- Generated by graphviz version 2.40.1 (20161225.0304)
 -->
<!-- Title: models_diagram Pages: 1 -->
<svg width="1739pt" height="1791pt"
 viewBox="0.00 0.00 1739.08 1791.00" xmlns="http://www.w3.org/2000/svg" xmlns:xlink="http://www.w3.org/1999/xlink">
<g id="graph0" class="graph" transform="scale(1 1) rotate(0) translate(4 1787)">
<title>models_diagram</title>
<polygon fill="transparent" stroke="transparent" points="-4,4 -4,-1787 1735.0835,-1787 1735.0835,4 -4,4"/>
<!-- _diagram_info -->
<g id="node1" class="node">
<title>_diagram_info</title>
<text text-anchor="start" x="8" y="-1593.6" font-family="Times,serif" font-size="13.00" fill="#000000">Models diagram</text>
<text text-anchor="start" x="8" y="-1580.6" font-family="Times,serif" font-size="13.00" fill="#000000">Date: Jan 24 2018 &#45; 19:31</text>
<text text-anchor="start" x="8" y="-1567.6" font-family="Times,serif" font-size="13.00" fill="#000000">Migration version: 20180124182351</text>
<text text-anchor="start" x="8" y="-1554.6" font-family="Times,serif" font-size="13.00" fill="#000000">Generated by RailRoady 1.5.3</text>
<text text-anchor="start" x="8" y="-1541.6" font-family="Times,serif" font-size="13.00" fill="#000000">http://railroady.prestonlee.com</text>
</g>
<!-- CryptoCompare::Coin -->
<g id="node2" class="node">
<title>CryptoCompare::Coin</title>
<polygon fill="none" stroke="#000000" points="225.0808,-1549.5 225.0808,-1593.5 366.2947,-1593.5 366.2947,-1549.5 225.0808,-1549.5"/>
<text text-anchor="middle" x="295.6877" y="-1578.3" font-family="Times,serif" font-size="14.00" fill="#000000">CryptoCompare::Coin</text>
<polyline fill="none" stroke="#000000" points="225.0808,-1571.5 366.2947,-1571.5 "/>
<text text-anchor="middle" x="295.6877" y="-1556.3" font-family="Times,serif" font-size="14.00" fill="#000000"> </text>
</g>
<!-- CryptoCompare::Coins -->
<g id="node3" class="node">
<title>CryptoCompare::Coins</title>
<polygon fill="none" stroke="#000000" points="384.3567,-1549.5 384.3567,-1593.5 531.0188,-1593.5 531.0188,-1549.5 384.3567,-1549.5"/>
<text text-anchor="middle" x="457.6877" y="-1578.3" font-family="Times,serif" font-size="14.00" fill="#000000">CryptoCompare::Coins</text>
<polyline fill="none" stroke="#000000" points="384.3567,-1571.5 531.0188,-1571.5 "/>
<text text-anchor="middle" x="457.6877" y="-1556.3" font-family="Times,serif" font-size="14.00" fill="#000000"> </text>
</g>
<!-- CryptoCompare::CoinRequest -->
<g id="node4" class="node">
<title>CryptoCompare::CoinRequest</title>
<polygon fill="none" stroke="#000000" points="548.5291,-1549.5 548.5291,-1593.5 734.8464,-1593.5 734.8464,-1549.5 548.5291,-1549.5"/>
<text text-anchor="middle" x="641.6877" y="-1578.3" font-family="Times,serif" font-size="14.00" fill="#000000">CryptoCompare::CoinRequest</text>
<polyline fill="none" stroke="#000000" points="548.5291,-1571.5 734.8464,-1571.5 "/>
<text text-anchor="middle" x="641.6877" y="-1556.3" font-family="Times,serif" font-size="14.00" fill="#000000"> </text>
</g>
<!-- CryptoCompare::CoinResponse -->
<g id="node5" class="node">
<title>CryptoCompare::CoinResponse</title>
<polygon fill="none" stroke="#000000" points="753.2498,-1549.5 753.2498,-1593.5 948.1257,-1593.5 948.1257,-1549.5 753.2498,-1549.5"/>
<text text-anchor="middle" x="850.6877" y="-1578.3" font-family="Times,serif" font-size="14.00" fill="#000000">CryptoCompare::CoinResponse</text>
<polyline fill="none" stroke="#000000" points="753.2498,-1571.5 948.1257,-1571.5 "/>
<text text-anchor="middle" x="850.6877" y="-1556.3" font-family="Times,serif" font-size="14.00" fill="#000000"> </text>
</g>
<!-- Balance -->
<g id="node6" class="node">
<title>Balance</title>
<path fill="none" stroke="#000000" d="M972.7942,-918.5C972.7942,-918.5 1206.5813,-918.5 1206.5813,-918.5 1212.5813,-918.5 1218.5813,-924.5 1218.5813,-930.5 1218.5813,-930.5 1218.5813,-1090.5 1218.5813,-1090.5 1218.5813,-1096.5 1212.5813,-1102.5 1206.5813,-1102.5 1206.5813,-1102.5 972.7942,-1102.5 972.7942,-1102.5 966.7942,-1102.5 960.7942,-1096.5 960.7942,-1090.5 960.7942,-1090.5 960.7942,-930.5 960.7942,-930.5 960.7942,-924.5 966.7942,-918.5 972.7942,-918.5"/>
<text text-anchor="middle" x="1089.6877" y="-1087.3" font-family="Times,serif" font-size="14.00" fill="#000000">Balance</text>
<polyline fill="none" stroke="#000000" points="960.7942,-1080.5 1218.5813,-1080.5 "/>
<text text-anchor="start" x="968.7942" y="-1065.3" font-family="Times,serif" font-size="14.00" fill="#000000">breakeven_price :character varying</text>
<text text-anchor="start" x="968.7942" y="-1051.3" font-family="Times,serif" font-size="14.00" fill="#000000">wallet_id :integer</text>
<text text-anchor="start" x="968.7942" y="-1037.3" font-family="Times,serif" font-size="14.00" fill="#000000">amount :double precision</text>
<text text-anchor="start" x="968.7942" y="-1023.3" font-family="Times,serif" font-size="14.00" fill="#000000">avg_buy_price_in_btc :double precision</text>
<text text-anchor="start" x="968.7942" y="-1009.3" font-family="Times,serif" font-size="14.00" fill="#000000">avg_sell_price_in_btc :double precision</text>
<text text-anchor="start" x="968.7942" y="-995.3" font-family="Times,serif" font-size="14.00" fill="#000000">created_at :timestamp without time zone</text>
<text text-anchor="start" x="968.7942" y="-981.3" font-family="Times,serif" font-size="14.00" fill="#000000">updated_at :timestamp without time zone</text>
<text text-anchor="start" x="968.7942" y="-967.3" font-family="Times,serif" font-size="14.00" fill="#000000">avg_buy_price_per_unit :character varying</text>
<text text-anchor="start" x="968.7942" y="-953.3" font-family="Times,serif" font-size="14.00" fill="#000000">avg_sell_price_per_unit :character varying</text>
<text text-anchor="start" x="968.7942" y="-939.3" font-family="Times,serif" font-size="14.00" fill="#000000">avg_price_per_unit :character varying</text>
<text text-anchor="start" x="968.7942" y="-925.3" font-family="Times,serif" font-size="14.00" fill="#000000">id :bigint</text>
</g>
<!-- Tx -->
<g id="node7" class="node">
<title>Tx</title>
<path fill="none" stroke="#000000" d="M786.1907,-459.5C786.1907,-459.5 1089.1848,-459.5 1089.1848,-459.5 1095.1848,-459.5 1101.1848,-465.5 1101.1848,-471.5 1101.1848,-471.5 1101.1848,-869.5 1101.1848,-869.5 1101.1848,-875.5 1095.1848,-881.5 1089.1848,-881.5 1089.1848,-881.5 786.1907,-881.5 786.1907,-881.5 780.1907,-881.5 774.1907,-875.5 774.1907,-869.5 774.1907,-869.5 774.1907,-471.5 774.1907,-471.5 774.1907,-465.5 780.1907,-459.5 786.1907,-459.5"/>
<text text-anchor="middle" x="937.6877" y="-866.3" font-family="Times,serif" font-size="14.00" fill="#000000">Tx</text>
<polyline fill="none" stroke="#000000" points="774.1907,-859.5 1101.1848,-859.5 "/>
<text text-anchor="start" x="782.1907" y="-844.3" font-family="Times,serif" font-size="14.00" fill="#000000">trading_pair_id :integer</text>
<text text-anchor="start" x="782.1907" y="-830.3" font-family="Times,serif" font-size="14.00" fill="#000000">balance_id :integer</text>
<text text-anchor="start" x="782.1907" y="-816.3" font-family="Times,serif" font-size="14.00" fill="#000000">timestamp :character varying</text>
<text text-anchor="start" x="782.1907" y="-802.3" font-family="Times,serif" font-size="14.00" fill="#000000">type :character varying</text>
<text text-anchor="start" x="782.1907" y="-788.3" font-family="Times,serif" font-size="14.00" fill="#000000">amount :character varying</text>
<text text-anchor="start" x="782.1907" y="-774.3" font-family="Times,serif" font-size="14.00" fill="#000000">written_off :boolean</text>
<text text-anchor="start" x="782.1907" y="-760.3" font-family="Times,serif" font-size="14.00" fill="#000000">created_at :timestamp without time zone</text>
<text text-anchor="start" x="782.1907" y="-746.3" font-family="Times,serif" font-size="14.00" fill="#000000">updated_at :timestamp without time zone</text>
<text text-anchor="start" x="782.1907" y="-732.3" font-family="Times,serif" font-size="14.00" fill="#000000">tid :character varying</text>
<text text-anchor="start" x="782.1907" y="-718.3" font-family="Times,serif" font-size="14.00" fill="#000000">order_id :character varying</text>
<text text-anchor="start" x="782.1907" y="-704.3" font-family="Times,serif" font-size="14.00" fill="#000000">price :character varying</text>
<text text-anchor="start" x="782.1907" y="-690.3" font-family="Times,serif" font-size="14.00" fill="#000000">pair :character varying</text>
<text text-anchor="start" x="782.1907" y="-676.3" font-family="Times,serif" font-size="14.00" fill="#000000">fee_currency :character varying</text>
<text text-anchor="start" x="782.1907" y="-662.3" font-family="Times,serif" font-size="14.00" fill="#000000">fee_amount :character varying</text>
<text text-anchor="start" x="782.1907" y="-648.3" font-family="Times,serif" font-size="14.00" fill="#000000">fee :character varying</text>
<text text-anchor="start" x="782.1907" y="-634.3" font-family="Times,serif" font-size="14.00" fill="#000000">timestamp_created :character varying</text>
<text text-anchor="start" x="782.1907" y="-620.3" font-family="Times,serif" font-size="14.00" fill="#000000">txid :character varying</text>
<text text-anchor="start" x="782.1907" y="-606.3" font-family="Times,serif" font-size="14.00" fill="#000000">description :text</text>
<text text-anchor="start" x="782.1907" y="-592.3" font-family="Times,serif" font-size="14.00" fill="#000000">status :character varying</text>
<text text-anchor="start" x="782.1907" y="-578.3" font-family="Times,serif" font-size="14.00" fill="#000000">address :character varying</text>
<text text-anchor="start" x="782.1907" y="-564.3" font-family="Times,serif" font-size="14.00" fill="#000000">currency :character varying</text>
<text text-anchor="start" x="782.1907" y="-550.3" font-family="Times,serif" font-size="14.00" fill="#000000">method :character varying</text>
<text text-anchor="start" x="782.1907" y="-536.3" font-family="Times,serif" font-size="14.00" fill="#000000">order_type :character varying</text>
<text text-anchor="start" x="782.1907" y="-522.3" font-family="Times,serif" font-size="14.00" fill="#000000">movement_type :character varying</text>
<text text-anchor="start" x="782.1907" y="-508.3" font-family="Times,serif" font-size="14.00" fill="#000000">remote_id :character varying</text>
<text text-anchor="start" x="782.1907" y="-494.3" font-family="Times,serif" font-size="14.00" fill="#000000">invalidated :boolean</text>
<text text-anchor="start" x="782.1907" y="-480.3" font-family="Times,serif" font-size="14.00" fill="#000000">value_in_btc_at_time_of_movement :character varying</text>
<text text-anchor="start" x="782.1907" y="-466.3" font-family="Times,serif" font-size="14.00" fill="#000000">id :bigint</text>
</g>
<!-- Balance&#45;&gt;Tx -->
<g id="edge1" class="edge">
<title>Balance&#45;&gt;Tx</title>
<path fill="none" stroke="#6cd351" d="M1045.2076,-911.005C1042.3087,-904.5205 1039.3353,-897.8696 1036.3093,-891.1009"/>
<ellipse fill="none" stroke="#6cd351" cx="1046.9218" cy="-914.8394" rx="4" ry="4"/>
<polygon fill="#6cd351" stroke="#6cd351" points="1036.2337,-890.9317 1036.2605,-879.9659 1034.1931,-886.3671 1032.1524,-881.8025 1032.1524,-881.8025 1032.1524,-881.8025 1034.1931,-886.3671 1028.0442,-883.6391 1036.2337,-890.9317 1036.2337,-890.9317"/>
</g>
<!-- TradingPair -->
<g id="node11" class="node">
<title>TradingPair</title>
<path fill="none" stroke="#000000" d="M1130.8254,-599.5C1130.8254,-599.5 1354.55,-599.5 1354.55,-599.5 1360.55,-599.5 1366.55,-605.5 1366.55,-611.5 1366.55,-611.5 1366.55,-729.5 1366.55,-729.5 1366.55,-735.5 1360.55,-741.5 1354.55,-741.5 1354.55,-741.5 1130.8254,-741.5 1130.8254,-741.5 1124.8254,-741.5 1118.8254,-735.5 1118.8254,-729.5 1118.8254,-729.5 1118.8254,-611.5 1118.8254,-611.5 1118.8254,-605.5 1124.8254,-599.5 1130.8254,-599.5"/>
<text text-anchor="middle" x="1242.6877" y="-726.3" font-family="Times,serif" font-size="14.00" fill="#000000">TradingPair</text>
<polyline fill="none" stroke="#000000" points="1118.8254,-719.5 1366.55,-719.5 "/>
<text text-anchor="start" x="1126.8254" y="-704.3" font-family="Times,serif" font-size="14.00" fill="#000000">updated_at :timestamp without time zone</text>
<text text-anchor="start" x="1126.8254" y="-690.3" font-family="Times,serif" font-size="14.00" fill="#000000">balance_id :bigint</text>
<text text-anchor="start" x="1126.8254" y="-676.3" font-family="Times,serif" font-size="14.00" fill="#000000">name :character varying</text>
<text text-anchor="start" x="1126.8254" y="-662.3" font-family="Times,serif" font-size="14.00" fill="#000000">avg_sell_price :character varying</text>
<text text-anchor="start" x="1126.8254" y="-648.3" font-family="Times,serif" font-size="14.00" fill="#000000">avg_buy_price :character varying</text>
<text text-anchor="start" x="1126.8254" y="-634.3" font-family="Times,serif" font-size="14.00" fill="#000000">breakeven_price :character varying</text>
<text text-anchor="start" x="1126.8254" y="-620.3" font-family="Times,serif" font-size="14.00" fill="#000000">created_at :timestamp without time zone</text>
<text text-anchor="start" x="1126.8254" y="-606.3" font-family="Times,serif" font-size="14.00" fill="#000000">id :bigint</text>
</g>
<!-- Balance&#45;&gt;TradingPair -->
<g id="edge2" class="edge">
<title>Balance&#45;&gt;TradingPair</title>
<path fill="none" stroke="#e7ddd6" d="M1134.5044,-910.9073C1157.4185,-859.9873 1184.9388,-798.831 1206.488,-750.9439"/>
<ellipse fill="none" stroke="#e7ddd6" cx="1132.7332" cy="-914.8434" rx="4" ry="4"/>
<polygon fill="#e7ddd6" stroke="#e7ddd6" points="1206.6114,-750.6696 1214.8187,-743.397 1208.6632,-746.1099 1210.7151,-741.5503 1210.7151,-741.5503 1210.7151,-741.5503 1208.6632,-746.1099 1206.6114,-739.7037 1206.6114,-750.6696 1206.6114,-750.6696"/>
</g>
<!-- Wallet -->
<g id="node8" class="node">
<title>Wallet</title>
<path fill="none" stroke="#000000" d="M977.8254,-1139.5C977.8254,-1139.5 1201.55,-1139.5 1201.55,-1139.5 1207.55,-1139.5 1213.55,-1145.5 1213.55,-1151.5 1213.55,-1151.5 1213.55,-1311.5 1213.55,-1311.5 1213.55,-1317.5 1207.55,-1323.5 1201.55,-1323.5 1201.55,-1323.5 977.8254,-1323.5 977.8254,-1323.5 971.8254,-1323.5 965.8254,-1317.5 965.8254,-1311.5 965.8254,-1311.5 965.8254,-1151.5 965.8254,-1151.5 965.8254,-1145.5 971.8254,-1139.5 977.8254,-1139.5"/>
<text text-anchor="middle" x="1089.6877" y="-1308.3" font-family="Times,serif" font-size="14.00" fill="#000000">Wallet</text>
<polyline fill="none" stroke="#000000" points="965.8254,-1301.5 1213.55,-1301.5 "/>
<text text-anchor="start" x="973.8254" y="-1286.3" font-family="Times,serif" font-size="14.00" fill="#000000">is_penny_coin :boolean</text>
<text text-anchor="start" x="973.8254" y="-1272.3" font-family="Times,serif" font-size="14.00" fill="#000000">exchange_id :integer</text>
<text text-anchor="start" x="973.8254" y="-1258.3" font-family="Times,serif" font-size="14.00" fill="#000000">name :character varying</text>
<text text-anchor="start" x="973.8254" y="-1244.3" font-family="Times,serif" font-size="14.00" fill="#000000">ticker :character varying</text>
<text text-anchor="start" x="973.8254" y="-1230.3" font-family="Times,serif" font-size="14.00" fill="#000000">amount :character varying</text>
<text text-anchor="start" x="973.8254" y="-1216.3" font-family="Times,serif" font-size="14.00" fill="#000000">available :character varying</text>
<text text-anchor="start" x="973.8254" y="-1202.3" font-family="Times,serif" font-size="14.00" fill="#000000">wallet_type :character varying</text>
<text text-anchor="start" x="973.8254" y="-1188.3" font-family="Times,serif" font-size="14.00" fill="#000000">created_at :timestamp without time zone</text>
<text text-anchor="start" x="973.8254" y="-1174.3" font-family="Times,serif" font-size="14.00" fill="#000000">updated_at :timestamp without time zone</text>
<text text-anchor="start" x="973.8254" y="-1160.3" font-family="Times,serif" font-size="14.00" fill="#000000">avg_cost_per_unit :character varying</text>
<text text-anchor="start" x="973.8254" y="-1146.3" font-family="Times,serif" font-size="14.00" fill="#000000">id :bigint</text>
</g>
<!-- Wallet&#45;&gt;Balance -->
<g id="edge3" class="edge">
<title>Wallet&#45;&gt;Balance</title>
<path fill="none" stroke="#c0bff8" d="M1089.6877,-1131.1259C1089.6877,-1124.4986 1089.6877,-1117.8224 1089.6877,-1111.1936"/>
<ellipse fill="none" stroke="#c0bff8" cx="1089.6878" cy="-1135.3764" rx="4" ry="4"/>
<ellipse fill="#c0bff8" stroke="#c0bff8" cx="1089.6878" cy="-1106.8297" rx="4" ry="4"/>
</g>
<!-- Movement -->
<g id="node9" class="node">
<title>Movement</title>
<path fill="none" stroke="#000000" d="M1243.1907,-1360.5C1243.1907,-1360.5 1546.1848,-1360.5 1546.1848,-1360.5 1552.1848,-1360.5 1558.1848,-1366.5 1558.1848,-1372.5 1558.1848,-1372.5 1558.1848,-1770.5 1558.1848,-1770.5 1558.1848,-1776.5 1552.1848,-1782.5 1546.1848,-1782.5 1546.1848,-1782.5 1243.1907,-1782.5 1243.1907,-1782.5 1237.1907,-1782.5 1231.1907,-1776.5 1231.1907,-1770.5 1231.1907,-1770.5 1231.1907,-1372.5 1231.1907,-1372.5 1231.1907,-1366.5 1237.1907,-1360.5 1243.1907,-1360.5"/>
<text text-anchor="middle" x="1394.6877" y="-1767.3" font-family="Times,serif" font-size="14.00" fill="#000000">Movement</text>
<polyline fill="none" stroke="#000000" points="1231.1907,-1760.5 1558.1848,-1760.5 "/>
<text text-anchor="start" x="1239.1907" y="-1745.3" font-family="Times,serif" font-size="14.00" fill="#000000">trading_pair_id :integer</text>
<text text-anchor="start" x="1239.1907" y="-1731.3" font-family="Times,serif" font-size="14.00" fill="#000000">balance_id :integer</text>
<text text-anchor="start" x="1239.1907" y="-1717.3" font-family="Times,serif" font-size="14.00" fill="#000000">timestamp :character varying</text>
<text text-anchor="start" x="1239.1907" y="-1703.3" font-family="Times,serif" font-size="14.00" fill="#000000">type :character varying</text>
<text text-anchor="start" x="1239.1907" y="-1689.3" font-family="Times,serif" font-size="14.00" fill="#000000">amount :character varying</text>
<text text-anchor="start" x="1239.1907" y="-1675.3" font-family="Times,serif" font-size="14.00" fill="#000000">written_off :boolean</text>
<text text-anchor="start" x="1239.1907" y="-1661.3" font-family="Times,serif" font-size="14.00" fill="#000000">created_at :timestamp without time zone</text>
<text text-anchor="start" x="1239.1907" y="-1647.3" font-family="Times,serif" font-size="14.00" fill="#000000">updated_at :timestamp without time zone</text>
<text text-anchor="start" x="1239.1907" y="-1633.3" font-family="Times,serif" font-size="14.00" fill="#000000">tid :character varying</text>
<text text-anchor="start" x="1239.1907" y="-1619.3" font-family="Times,serif" font-size="14.00" fill="#000000">order_id :character varying</text>
<text text-anchor="start" x="1239.1907" y="-1605.3" font-family="Times,serif" font-size="14.00" fill="#000000">price :character varying</text>
<text text-anchor="start" x="1239.1907" y="-1591.3" font-family="Times,serif" font-size="14.00" fill="#000000">pair :character varying</text>
<text text-anchor="start" x="1239.1907" y="-1577.3" font-family="Times,serif" font-size="14.00" fill="#000000">fee_currency :character varying</text>
<text text-anchor="start" x="1239.1907" y="-1563.3" font-family="Times,serif" font-size="14.00" fill="#000000">fee_amount :character varying</text>
<text text-anchor="start" x="1239.1907" y="-1549.3" font-family="Times,serif" font-size="14.00" fill="#000000">fee :character varying</text>
<text text-anchor="start" x="1239.1907" y="-1535.3" font-family="Times,serif" font-size="14.00" fill="#000000">timestamp_created :character varying</text>
<text text-anchor="start" x="1239.1907" y="-1521.3" font-family="Times,serif" font-size="14.00" fill="#000000">txid :character varying</text>
<text text-anchor="start" x="1239.1907" y="-1507.3" font-family="Times,serif" font-size="14.00" fill="#000000">description :text</text>
<text text-anchor="start" x="1239.1907" y="-1493.3" font-family="Times,serif" font-size="14.00" fill="#000000">status :character varying</text>
<text text-anchor="start" x="1239.1907" y="-1479.3" font-family="Times,serif" font-size="14.00" fill="#000000">address :character varying</text>
<text text-anchor="start" x="1239.1907" y="-1465.3" font-family="Times,serif" font-size="14.00" fill="#000000">currency :character varying</text>
<text text-anchor="start" x="1239.1907" y="-1451.3" font-family="Times,serif" font-size="14.00" fill="#000000">method :character varying</text>
<text text-anchor="start" x="1239.1907" y="-1437.3" font-family="Times,serif" font-size="14.00" fill="#000000">order_type :character varying</text>
<text text-anchor="start" x="1239.1907" y="-1423.3" font-family="Times,serif" font-size="14.00" fill="#000000">movement_type :character varying</text>
<text text-anchor="start" x="1239.1907" y="-1409.3" font-family="Times,serif" font-size="14.00" fill="#000000">remote_id :character varying</text>
<text text-anchor="start" x="1239.1907" y="-1395.3" font-family="Times,serif" font-size="14.00" fill="#000000">invalidated :boolean</text>
<text text-anchor="start" x="1239.1907" y="-1381.3" font-family="Times,serif" font-size="14.00" fill="#000000">value_in_btc_at_time_of_movement :character varying</text>
<text text-anchor="start" x="1239.1907" y="-1367.3" font-family="Times,serif" font-size="14.00" fill="#000000">id :bigint</text>
</g>
<!-- Trade -->
<g id="node10" class="node">
<title>Trade</title>
<path fill="none" stroke="#000000" d="M1091.1907,-.5C1091.1907,-.5 1394.1848,-.5 1394.1848,-.5 1400.1848,-.5 1406.1848,-6.5 1406.1848,-12.5 1406.1848,-12.5 1406.1848,-410.5 1406.1848,-410.5 1406.1848,-416.5 1400.1848,-422.5 1394.1848,-422.5 1394.1848,-422.5 1091.1907,-422.5 1091.1907,-422.5 1085.1907,-422.5 1079.1907,-416.5 1079.1907,-410.5 1079.1907,-410.5 1079.1907,-12.5 1079.1907,-12.5 1079.1907,-6.5 1085.1907,-.5 1091.1907,-.5"/>
<text text-anchor="middle" x="1242.6877" y="-407.3" font-family="Times,serif" font-size="14.00" fill="#000000">Trade</text>
<polyline fill="none" stroke="#000000" points="1079.1907,-400.5 1406.1848,-400.5 "/>
<text text-anchor="start" x="1087.1907" y="-385.3" font-family="Times,serif" font-size="14.00" fill="#000000">trading_pair_id :integer</text>
<text text-anchor="start" x="1087.1907" y="-371.3" font-family="Times,serif" font-size="14.00" fill="#000000">balance_id :integer</text>
<text text-anchor="start" x="1087.1907" y="-357.3" font-family="Times,serif" font-size="14.00" fill="#000000">timestamp :character varying</text>
<text text-anchor="start" x="1087.1907" y="-343.3" font-family="Times,serif" font-size="14.00" fill="#000000">type :character varying</text>
<text text-anchor="start" x="1087.1907" y="-329.3" font-family="Times,serif" font-size="14.00" fill="#000000">amount :character varying</text>
<text text-anchor="start" x="1087.1907" y="-315.3" font-family="Times,serif" font-size="14.00" fill="#000000">written_off :boolean</text>
<text text-anchor="start" x="1087.1907" y="-301.3" font-family="Times,serif" font-size="14.00" fill="#000000">created_at :timestamp without time zone</text>
<text text-anchor="start" x="1087.1907" y="-287.3" font-family="Times,serif" font-size="14.00" fill="#000000">updated_at :timestamp without time zone</text>
<text text-anchor="start" x="1087.1907" y="-273.3" font-family="Times,serif" font-size="14.00" fill="#000000">tid :character varying</text>
<text text-anchor="start" x="1087.1907" y="-259.3" font-family="Times,serif" font-size="14.00" fill="#000000">order_id :character varying</text>
<text text-anchor="start" x="1087.1907" y="-245.3" font-family="Times,serif" font-size="14.00" fill="#000000">price :character varying</text>
<text text-anchor="start" x="1087.1907" y="-231.3" font-family="Times,serif" font-size="14.00" fill="#000000">pair :character varying</text>
<text text-anchor="start" x="1087.1907" y="-217.3" font-family="Times,serif" font-size="14.00" fill="#000000">fee_currency :character varying</text>
<text text-anchor="start" x="1087.1907" y="-203.3" font-family="Times,serif" font-size="14.00" fill="#000000">fee_amount :character varying</text>
<text text-anchor="start" x="1087.1907" y="-189.3" font-family="Times,serif" font-size="14.00" fill="#000000">fee :character varying</text>
<text text-anchor="start" x="1087.1907" y="-175.3" font-family="Times,serif" font-size="14.00" fill="#000000">timestamp_created :character varying</text>
<text text-anchor="start" x="1087.1907" y="-161.3" font-family="Times,serif" font-size="14.00" fill="#000000">txid :character varying</text>
<text text-anchor="start" x="1087.1907" y="-147.3" font-family="Times,serif" font-size="14.00" fill="#000000">description :text</text>
<text text-anchor="start" x="1087.1907" y="-133.3" font-family="Times,serif" font-size="14.00" fill="#000000">status :character varying</text>
<text text-anchor="start" x="1087.1907" y="-119.3" font-family="Times,serif" font-size="14.00" fill="#000000">address :character varying</text>
<text text-anchor="start" x="1087.1907" y="-105.3" font-family="Times,serif" font-size="14.00" fill="#000000">currency :character varying</text>
<text text-anchor="start" x="1087.1907" y="-91.3" font-family="Times,serif" font-size="14.00" fill="#000000">method :character varying</text>
<text text-anchor="start" x="1087.1907" y="-77.3" font-family="Times,serif" font-size="14.00" fill="#000000">order_type :character varying</text>
<text text-anchor="start" x="1087.1907" y="-63.3" font-family="Times,serif" font-size="14.00" fill="#000000">movement_type :character varying</text>
<text text-anchor="start" x="1087.1907" y="-49.3" font-family="Times,serif" font-size="14.00" fill="#000000">remote_id :character varying</text>
<text text-anchor="start" x="1087.1907" y="-35.3" font-family="Times,serif" font-size="14.00" fill="#000000">invalidated :boolean</text>
<text text-anchor="start" x="1087.1907" y="-21.3" font-family="Times,serif" font-size="14.00" fill="#000000">value_in_btc_at_time_of_movement :character varying</text>
<text text-anchor="start" x="1087.1907" y="-7.3" font-family="Times,serif" font-size="14.00" fill="#000000">id :bigint</text>
</g>
<!-- TradingPair&#45;&gt;Trade -->
<g id="edge4" class="edge">
<title>TradingPair&#45;&gt;Trade</title>
<path fill="none" stroke="#110628" d="M1242.6877,-591.0201C1242.6877,-546.8777 1242.6877,-489.5565 1242.6877,-432.895"/>
<ellipse fill="none" stroke="#110628" cx="1242.6878" cy="-595.2849" rx="4" ry="4"/>
<polygon fill="#110628" stroke="#110628" points="1242.6878,-432.699 1247.1877,-422.699 1242.6878,-427.699 1242.6877,-422.699 1242.6877,-422.699 1242.6877,-422.699 1242.6878,-427.699 1238.1877,-422.699 1242.6878,-432.699 1242.6878,-432.699"/>
</g>
<!-- Exchange -->
<g id="node12" class="node">
<title>Exchange</title>
<path fill="none" stroke="#000000" d="M977.8254,-1514.5C977.8254,-1514.5 1201.55,-1514.5 1201.55,-1514.5 1207.55,-1514.5 1213.55,-1520.5 1213.55,-1526.5 1213.55,-1526.5 1213.55,-1616.5 1213.55,-1616.5 1213.55,-1622.5 1207.55,-1628.5 1201.55,-1628.5 1201.55,-1628.5 977.8254,-1628.5 977.8254,-1628.5 971.8254,-1628.5 965.8254,-1622.5 965.8254,-1616.5 965.8254,-1616.5 965.8254,-1526.5 965.8254,-1526.5 965.8254,-1520.5 971.8254,-1514.5 977.8254,-1514.5"/>
<text text-anchor="middle" x="1089.6877" y="-1613.3" font-family="Times,serif" font-size="14.00" fill="#000000">Exchange</text>
<polyline fill="none" stroke="#000000" points="965.8254,-1606.5 1213.55,-1606.5 "/>
<text text-anchor="start" x="973.8254" y="-1591.3" font-family="Times,serif" font-size="14.00" fill="#000000">id :bigint</text>
<text text-anchor="start" x="973.8254" y="-1577.3" font-family="Times,serif" font-size="14.00" fill="#000000">name :character varying</text>
<text text-anchor="start" x="973.8254" y="-1563.3" font-family="Times,serif" font-size="14.00" fill="#000000">api :character varying</text>
<text text-anchor="start" x="973.8254" y="-1549.3" font-family="Times,serif" font-size="14.00" fill="#000000">nickname :character varying</text>
<text text-anchor="start" x="973.8254" y="-1535.3" font-family="Times,serif" font-size="14.00" fill="#000000">created_at :timestamp without time zone</text>
<text text-anchor="start" x="973.8254" y="-1521.3" font-family="Times,serif" font-size="14.00" fill="#000000">updated_at :timestamp without time zone</text>
</g>
<!-- Exchange&#45;&gt;Wallet -->
<g id="edge5" class="edge">
<title>Exchange&#45;&gt;Wallet</title>
<path fill="none" stroke="#a10b6d" d="M1089.6877,-1506.0866C1089.6877,-1457.3498 1089.6877,-1389.8568 1089.6877,-1333.9825"/>
<ellipse fill="none" stroke="#a10b6d" cx="1089.6878" cy="-1510.2081" rx="4" ry="4"/>
<polygon fill="#a10b6d" stroke="#a10b6d" points="1089.6878,-1333.6919 1094.1877,-1323.6919 1089.6878,-1328.6919 1089.6877,-1323.6919 1089.6877,-1323.6919 1089.6877,-1323.6919 1089.6878,-1328.6919 1085.1877,-1323.6919 1089.6878,-1333.6919 1089.6878,-1333.6919"/>
</g>
<!-- ApplicationRecord -->
<g id="node13" class="node">
<title>ApplicationRecord</title>
<ellipse fill="none" stroke="#000000" cx="1653.6877" cy="-1571.5" rx="77.2916" ry="18"/>
<text text-anchor="middle" x="1653.6877" y="-1567.3" font-family="Times,serif" font-size="14.00" fill="#000000">ApplicationRecord</text>
</g>
</g>
</svg>
