<?xml version="1.0" encoding="UTF-8" standalone="no"?>
<!DOCTYPE svg PUBLIC "-//W3C//DTD SVG 1.1//EN"
 "http://www.w3.org/Graphics/SVG/1.1/DTD/svg11.dtd">
<!-- Generated by graphviz version 2.40.1 (20161225.0304)
 -->
<!-- Title: models_diagram Pages: 1 -->
<svg width="1430pt" height="297pt"
 viewBox="0.00 0.00 1430.08 297.00" xmlns="http://www.w3.org/2000/svg" xmlns:xlink="http://www.w3.org/1999/xlink">
<g id="graph0" class="graph" transform="scale(1 1) rotate(0) translate(4 293)">
<title>models_diagram</title>
<polygon fill="transparent" stroke="transparent" points="-4,4 -4,-293 1426.0835,-293 1426.0835,4 -4,4"/>
<!-- _diagram_info -->
<g id="node1" class="node">
<title>_diagram_info</title>
<text text-anchor="start" x="8" y="-274.6" font-family="Times,serif" font-size="13.00" fill="#000000">Models diagram</text>
<text text-anchor="start" x="8" y="-261.6" font-family="Times,serif" font-size="13.00" fill="#000000">Date: Jan 24 2018 &#45; 19:15</text>
<text text-anchor="start" x="8" y="-248.6" font-family="Times,serif" font-size="13.00" fill="#000000">Migration version: 20180124161849</text>
<text text-anchor="start" x="8" y="-235.6" font-family="Times,serif" font-size="13.00" fill="#000000">Generated by RailRoady 1.5.3</text>
<text text-anchor="start" x="8" y="-222.6" font-family="Times,serif" font-size="13.00" fill="#000000">http://railroady.prestonlee.com</text>
</g>
<!-- CryptoCompare::Coin -->
<g id="node2" class="node">
<title>CryptoCompare::Coin</title>
<polygon fill="none" stroke="#000000" points="366.4018,-270.5 224.9737,-270.5 224.9737,-234.5 366.4018,-234.5 366.4018,-270.5"/>
<text text-anchor="middle" x="295.6877" y="-248.3" font-family="Times,serif" font-size="14.00" fill="#000000">CryptoCompare::Coin</text>
</g>
<!-- CryptoCompare::Coins -->
<g id="node3" class="node">
<title>CryptoCompare::Coins</title>
<polygon fill="none" stroke="#000000" points="530.8502,-270.5 384.5252,-270.5 384.5252,-234.5 530.8502,-234.5 530.8502,-270.5"/>
<text text-anchor="middle" x="457.6877" y="-248.3" font-family="Times,serif" font-size="14.00" fill="#000000">CryptoCompare::Coins</text>
</g>
<!-- CryptoCompare::CoinRequest -->
<g id="node4" class="node">
<title>CryptoCompare::CoinRequest</title>
<polygon fill="none" stroke="#000000" points="735.0054,-270.5 548.3701,-270.5 548.3701,-234.5 735.0054,-234.5 735.0054,-270.5"/>
<text text-anchor="middle" x="641.6877" y="-248.3" font-family="Times,serif" font-size="14.00" fill="#000000">CryptoCompare::CoinRequest</text>
</g>
<!-- CryptoCompare::CoinResponse -->
<g id="node5" class="node">
<title>CryptoCompare::CoinResponse</title>
<polygon fill="none" stroke="#000000" points="948.0638,-270.5 753.3117,-270.5 753.3117,-234.5 948.0638,-234.5 948.0638,-270.5"/>
<text text-anchor="middle" x="850.6877" y="-248.3" font-family="Times,serif" font-size="14.00" fill="#000000">CryptoCompare::CoinResponse</text>
</g>
<!-- Balance -->
<g id="node6" class="node">
<title>Balance</title>
<ellipse fill="none" stroke="#000000" cx="1010.6877" cy="-90" rx="38.6695" ry="18"/>
<text text-anchor="middle" x="1010.6877" y="-85.8" font-family="Times,serif" font-size="14.00" fill="#000000">Balance</text>
</g>
<!-- Tx -->
<g id="node7" class="node">
<title>Tx</title>
<ellipse fill="none" stroke="#000000" cx="1010.6877" cy="-18" rx="27" ry="18"/>
<text text-anchor="middle" x="1010.6877" y="-13.8" font-family="Times,serif" font-size="14.00" fill="#000000">Tx</text>
</g>
<!-- Balance&#45;&gt;Tx -->
<g id="edge1" class="edge">
<title>Balance&#45;&gt;Tx</title>
<path fill="none" stroke="#ecd252" d="M1010.6877,-63.8144C1010.6877,-58.2775 1010.6877,-52.4053 1010.6877,-46.7785"/>
<ellipse fill="none" stroke="#ecd252" cx="1010.6878" cy="-67.8314" rx="4" ry="4"/>
<polygon fill="#ecd252" stroke="#ecd252" points="1010.6878,-46.4133 1015.1877,-36.4132 1010.6878,-41.4133 1010.6877,-36.4133 1010.6877,-36.4133 1010.6877,-36.4133 1010.6878,-41.4133 1006.1877,-36.4133 1010.6878,-46.4133 1010.6878,-46.4133"/>
</g>
<!-- Wallet -->
<g id="node8" class="node">
<title>Wallet</title>
<ellipse fill="none" stroke="#000000" cx="1010.6877" cy="-162" rx="32.9423" ry="18"/>
<text text-anchor="middle" x="1010.6877" y="-157.8" font-family="Times,serif" font-size="14.00" fill="#000000">Wallet</text>
</g>
<!-- Wallet&#45;&gt;Balance -->
<g id="edge2" class="edge">
<title>Wallet&#45;&gt;Balance</title>
<path fill="none" stroke="#44fc0b" d="M1010.6877,-135.8144C1010.6877,-129.5677 1010.6877,-122.894 1010.6877,-116.6276"/>
<ellipse fill="none" stroke="#44fc0b" cx="1010.6878" cy="-139.8314" rx="4" ry="4"/>
<ellipse fill="#44fc0b" stroke="#44fc0b" cx="1010.6878" cy="-112.4133" rx="4" ry="4"/>
</g>
<!-- Movement -->
<g id="node9" class="node">
<title>Movement</title>
<ellipse fill="none" stroke="#000000" cx="1121.6877" cy="-252.5" rx="48.3427" ry="18"/>
<text text-anchor="middle" x="1121.6877" y="-248.3" font-family="Times,serif" font-size="14.00" fill="#000000">Movement</text>
</g>
<!-- Trade -->
<g id="node10" class="node">
<title>Trade</title>
<ellipse fill="none" stroke="#000000" cx="1218.6877" cy="-252.5" rx="30.3385" ry="18"/>
<text text-anchor="middle" x="1218.6877" y="-248.3" font-family="Times,serif" font-size="14.00" fill="#000000">Trade</text>
</g>
<!-- Exchange -->
<g id="node11" class="node">
<title>Exchange</title>
<ellipse fill="none" stroke="#000000" cx="1010.6877" cy="-252.5" rx="44.9423" ry="18"/>
<text text-anchor="middle" x="1010.6877" y="-248.3" font-family="Times,serif" font-size="14.00" fill="#000000">Exchange</text>
</g>
<!-- Exchange&#45;&gt;Wallet -->
<g id="edge3" class="edge">
<title>Exchange&#45;&gt;Wallet</title>
<path fill="none" stroke="#a17276" d="M1010.6877,-225.9687C1010.6877,-214.8402 1010.6877,-201.878 1010.6877,-190.5429"/>
<ellipse fill="none" stroke="#a17276" cx="1010.6878" cy="-230.186" rx="4" ry="4"/>
<polygon fill="#a17276" stroke="#a17276" points="1010.6878,-190.2868 1015.1877,-180.2867 1010.6878,-185.2868 1010.6877,-180.2868 1010.6877,-180.2868 1010.6877,-180.2868 1010.6878,-185.2868 1006.1877,-180.2868 1010.6878,-190.2868 1010.6878,-190.2868"/>
</g>
<!-- ApplicationRecord -->
<g id="node12" class="node">
<title>ApplicationRecord</title>
<ellipse fill="none" stroke="#000000" cx="1344.6877" cy="-252.5" rx="77.2916" ry="18"/>
<text text-anchor="middle" x="1344.6877" y="-248.3" font-family="Times,serif" font-size="14.00" fill="#000000">ApplicationRecord</text>
</g>
</g>
</svg>
