<?xml version="1.0" encoding="UTF-8" standalone="no"?>
<!DOCTYPE svg PUBLIC "-//W3C//DTD SVG 1.1//EN"
 "http://www.w3.org/Graphics/SVG/1.1/DTD/svg11.dtd">
<!-- Generated by graphviz version 2.40.1 (20161225.0304)
 -->
<!-- Title: models_diagram Pages: 1 -->
<svg width="1351pt" height="369pt"
 viewBox="0.00 0.00 1351.08 369.00" xmlns="http://www.w3.org/2000/svg" xmlns:xlink="http://www.w3.org/1999/xlink">
<g id="graph0" class="graph" transform="scale(1 1) rotate(0) translate(4 365)">
<title>models_diagram</title>
<polygon fill="transparent" stroke="transparent" points="-4,4 -4,-365 1347.0835,-365 1347.0835,4 -4,4"/>
<!-- _diagram_info -->
<g id="node1" class="node">
<title>_diagram_info</title>
<text text-anchor="start" x="8" y="-346.6" font-family="Times,serif" font-size="13.00" fill="#000000">Models diagram</text>
<text text-anchor="start" x="8" y="-333.6" font-family="Times,serif" font-size="13.00" fill="#000000">Date: Jan 28 2018 &#45; 17:59</text>
<text text-anchor="start" x="8" y="-320.6" font-family="Times,serif" font-size="13.00" fill="#000000">Migration version: 20180124182351</text>
<text text-anchor="start" x="8" y="-307.6" font-family="Times,serif" font-size="13.00" fill="#000000">Generated by RailRoady 1.5.3</text>
<text text-anchor="start" x="8" y="-294.6" font-family="Times,serif" font-size="13.00" fill="#000000">http://railroady.prestonlee.com</text>
</g>
<!-- CryptoCompare::Coin -->
<g id="node2" class="node">
<title>CryptoCompare::Coin</title>
<polygon fill="none" stroke="#000000" points="366.4018,-342.5 224.9737,-342.5 224.9737,-306.5 366.4018,-306.5 366.4018,-342.5"/>
<text text-anchor="middle" x="295.6877" y="-320.3" font-family="Times,serif" font-size="14.00" fill="#000000">CryptoCompare::Coin</text>
</g>
<!-- CryptoCompare::Coins -->
<g id="node3" class="node">
<title>CryptoCompare::Coins</title>
<polygon fill="none" stroke="#000000" points="530.8502,-342.5 384.5252,-342.5 384.5252,-306.5 530.8502,-306.5 530.8502,-342.5"/>
<text text-anchor="middle" x="457.6877" y="-320.3" font-family="Times,serif" font-size="14.00" fill="#000000">CryptoCompare::Coins</text>
</g>
<!-- CryptoCompare::CoinRequest -->
<g id="node4" class="node">
<title>CryptoCompare::CoinRequest</title>
<polygon fill="none" stroke="#000000" points="735.0054,-342.5 548.3701,-342.5 548.3701,-306.5 735.0054,-306.5 735.0054,-342.5"/>
<text text-anchor="middle" x="641.6877" y="-320.3" font-family="Times,serif" font-size="14.00" fill="#000000">CryptoCompare::CoinRequest</text>
</g>
<!-- CryptoCompare::CoinResponse -->
<g id="node5" class="node">
<title>CryptoCompare::CoinResponse</title>
<polygon fill="none" stroke="#000000" points="948.0638,-342.5 753.3117,-342.5 753.3117,-306.5 948.0638,-306.5 948.0638,-342.5"/>
<text text-anchor="middle" x="850.6877" y="-320.3" font-family="Times,serif" font-size="14.00" fill="#000000">CryptoCompare::CoinResponse</text>
</g>
<!-- Balance -->
<g id="node6" class="node">
<title>Balance</title>
<ellipse fill="none" stroke="#000000" cx="1010.6877" cy="-162" rx="38.6695" ry="18"/>
<text text-anchor="middle" x="1010.6877" y="-157.8" font-family="Times,serif" font-size="14.00" fill="#000000">Balance</text>
</g>
<!-- Tx -->
<g id="node7" class="node">
<title>Tx</title>
<ellipse fill="none" stroke="#000000" cx="962.6877" cy="-90" rx="27" ry="18"/>
<text text-anchor="middle" x="962.6877" y="-85.8" font-family="Times,serif" font-size="14.00" fill="#000000">Tx</text>
</g>
<!-- Balance&#45;&gt;Tx -->
<g id="edge1" class="edge">
<title>Balance&#45;&gt;Tx</title>
<path fill="none" stroke="#aa46a8" d="M994.5477,-137.7899C989.7716,-130.6258 984.5287,-122.7614 979.6994,-115.5174"/>
<ellipse fill="none" stroke="#aa46a8" cx="996.8495" cy="-141.2426" rx="4" ry="4"/>
<polygon fill="#aa46a8" stroke="#aa46a8" points="979.4167,-115.0934 977.6139,-104.2767 976.6432,-110.9332 973.8697,-106.7729 973.8697,-106.7729 973.8697,-106.7729 976.6432,-110.9332 970.1255,-109.2691 979.4167,-115.0934 979.4167,-115.0934"/>
</g>
<!-- TradingPair -->
<g id="node11" class="node">
<title>TradingPair</title>
<ellipse fill="none" stroke="#000000" cx="1059.6877" cy="-90" rx="52.0798" ry="18"/>
<text text-anchor="middle" x="1059.6877" y="-85.8" font-family="Times,serif" font-size="14.00" fill="#000000">TradingPair</text>
</g>
<!-- Balance&#45;&gt;TradingPair -->
<g id="edge2" class="edge">
<title>Balance&#45;&gt;TradingPair</title>
<path fill="none" stroke="#a34325" d="M1027.2192,-137.7089C1031.9113,-130.8143 1037.0411,-123.2767 1041.8091,-116.2706"/>
<ellipse fill="none" stroke="#a34325" cx="1024.7998" cy="-141.2639" rx="4" ry="4"/>
<polygon fill="#a34325" stroke="#a34325" points="1041.9688,-116.036 1051.3153,-110.3007 1044.7819,-111.9025 1047.595,-107.7689 1047.595,-107.7689 1047.595,-107.7689 1044.7819,-111.9025 1043.8748,-105.2371 1041.9688,-116.036 1041.9688,-116.036"/>
</g>
<!-- Wallet -->
<g id="node8" class="node">
<title>Wallet</title>
<ellipse fill="none" stroke="#000000" cx="1010.6877" cy="-234" rx="32.9423" ry="18"/>
<text text-anchor="middle" x="1010.6877" y="-229.8" font-family="Times,serif" font-size="14.00" fill="#000000">Wallet</text>
</g>
<!-- Wallet&#45;&gt;Balance -->
<g id="edge3" class="edge">
<title>Wallet&#45;&gt;Balance</title>
<path fill="none" stroke="#67941d" d="M1010.6877,-207.8144C1010.6877,-201.5677 1010.6877,-194.894 1010.6877,-188.6276"/>
<ellipse fill="none" stroke="#67941d" cx="1010.6878" cy="-211.8314" rx="4" ry="4"/>
<ellipse fill="#67941d" stroke="#67941d" cx="1010.6878" cy="-184.4133" rx="4" ry="4"/>
</g>
<!-- Movement -->
<g id="node9" class="node">
<title>Movement</title>
<ellipse fill="none" stroke="#000000" cx="1121.6877" cy="-324.5" rx="48.3427" ry="18"/>
<text text-anchor="middle" x="1121.6877" y="-320.3" font-family="Times,serif" font-size="14.00" fill="#000000">Movement</text>
</g>
<!-- Trade -->
<g id="node10" class="node">
<title>Trade</title>
<ellipse fill="none" stroke="#000000" cx="1059.6877" cy="-18" rx="30.3385" ry="18"/>
<text text-anchor="middle" x="1059.6877" y="-13.8" font-family="Times,serif" font-size="14.00" fill="#000000">Trade</text>
</g>
<!-- TradingPair&#45;&gt;Trade -->
<g id="edge4" class="edge">
<title>TradingPair&#45;&gt;Trade</title>
<path fill="none" stroke="#14f51d" d="M1059.6877,-63.8144C1059.6877,-58.2775 1059.6877,-52.4053 1059.6877,-46.7785"/>
<ellipse fill="none" stroke="#14f51d" cx="1059.6878" cy="-67.8314" rx="4" ry="4"/>
<polygon fill="#14f51d" stroke="#14f51d" points="1059.6878,-46.4133 1064.1877,-36.4132 1059.6878,-41.4133 1059.6877,-36.4133 1059.6877,-36.4133 1059.6877,-36.4133 1059.6878,-41.4133 1055.1877,-36.4133 1059.6878,-46.4133 1059.6878,-46.4133"/>
</g>
<!-- Exchange -->
<g id="node12" class="node">
<title>Exchange</title>
<ellipse fill="none" stroke="#000000" cx="1010.6877" cy="-324.5" rx="44.9423" ry="18"/>
<text text-anchor="middle" x="1010.6877" y="-320.3" font-family="Times,serif" font-size="14.00" fill="#000000">Exchange</text>
</g>
<!-- Exchange&#45;&gt;Wallet -->
<g id="edge5" class="edge">
<title>Exchange&#45;&gt;Wallet</title>
<path fill="none" stroke="#8db135" d="M1010.6877,-297.9687C1010.6877,-286.8402 1010.6877,-273.878 1010.6877,-262.5429"/>
<ellipse fill="none" stroke="#8db135" cx="1010.6878" cy="-302.186" rx="4" ry="4"/>
<polygon fill="#8db135" stroke="#8db135" points="1010.6878,-262.2868 1015.1877,-252.2867 1010.6878,-257.2868 1010.6877,-252.2868 1010.6877,-252.2868 1010.6877,-252.2868 1010.6878,-257.2868 1006.1877,-252.2868 1010.6878,-262.2868 1010.6878,-262.2868"/>
</g>
<!-- ApplicationRecord -->
<g id="node13" class="node">
<title>ApplicationRecord</title>
<ellipse fill="none" stroke="#000000" cx="1265.6877" cy="-324.5" rx="77.2916" ry="18"/>
<text text-anchor="middle" x="1265.6877" y="-320.3" font-family="Times,serif" font-size="14.00" fill="#000000">ApplicationRecord</text>
</g>
</g>
</svg>
