<?xml version="1.0" encoding="UTF-8" standalone="no"?>
<!DOCTYPE svg PUBLIC "-//W3C//DTD SVG 1.1//EN"
 "http://www.w3.org/Graphics/SVG/1.1/DTD/svg11.dtd">
<!-- Generated by graphviz version 2.40.1 (20161225.0304)
 -->
<!-- Title: models_diagram Pages: 1 -->
<svg width="2084pt" height="1304pt"
 viewBox="0.00 0.00 2084.08 1304.00" xmlns="http://www.w3.org/2000/svg" xmlns:xlink="http://www.w3.org/1999/xlink">
<g id="graph0" class="graph" transform="scale(1 1) rotate(0) translate(4 1300)">
<title>models_diagram</title>
<polygon fill="transparent" stroke="transparent" points="-4,4 -4,-1300 2080.0835,-1300 2080.0835,4 -4,4"/>
<!-- _diagram_info -->
<g id="node1" class="node">
<title>_diagram_info</title>
<text text-anchor="start" x="8" y="-1113.6" font-family="Times,serif" font-size="13.00" fill="#000000">Models diagram</text>
<text text-anchor="start" x="8" y="-1100.6" font-family="Times,serif" font-size="13.00" fill="#000000">Date: Jan 24 2018 &#45; 19:15</text>
<text text-anchor="start" x="8" y="-1087.6" font-family="Times,serif" font-size="13.00" fill="#000000">Migration version: 20180124161849</text>
<text text-anchor="start" x="8" y="-1074.6" font-family="Times,serif" font-size="13.00" fill="#000000">Generated by RailRoady 1.5.3</text>
<text text-anchor="start" x="8" y="-1061.6" font-family="Times,serif" font-size="13.00" fill="#000000">http://railroady.prestonlee.com</text>
</g>
<!-- CryptoCompare::Coin -->
<g id="node2" class="node">
<title>CryptoCompare::Coin</title>
<polygon fill="none" stroke="#000000" points="225.0808,-1069.5 225.0808,-1113.5 366.2947,-1113.5 366.2947,-1069.5 225.0808,-1069.5"/>
<text text-anchor="middle" x="295.6877" y="-1098.3" font-family="Times,serif" font-size="14.00" fill="#000000">CryptoCompare::Coin</text>
<polyline fill="none" stroke="#000000" points="225.0808,-1091.5 366.2947,-1091.5 "/>
<text text-anchor="middle" x="295.6877" y="-1076.3" font-family="Times,serif" font-size="14.00" fill="#000000"> </text>
</g>
<!-- CryptoCompare::Coins -->
<g id="node3" class="node">
<title>CryptoCompare::Coins</title>
<polygon fill="none" stroke="#000000" points="384.3567,-1069.5 384.3567,-1113.5 531.0188,-1113.5 531.0188,-1069.5 384.3567,-1069.5"/>
<text text-anchor="middle" x="457.6877" y="-1098.3" font-family="Times,serif" font-size="14.00" fill="#000000">CryptoCompare::Coins</text>
<polyline fill="none" stroke="#000000" points="384.3567,-1091.5 531.0188,-1091.5 "/>
<text text-anchor="middle" x="457.6877" y="-1076.3" font-family="Times,serif" font-size="14.00" fill="#000000"> </text>
</g>
<!-- CryptoCompare::CoinRequest -->
<g id="node4" class="node">
<title>CryptoCompare::CoinRequest</title>
<polygon fill="none" stroke="#000000" points="548.5291,-1069.5 548.5291,-1113.5 734.8464,-1113.5 734.8464,-1069.5 548.5291,-1069.5"/>
<text text-anchor="middle" x="641.6877" y="-1098.3" font-family="Times,serif" font-size="14.00" fill="#000000">CryptoCompare::CoinRequest</text>
<polyline fill="none" stroke="#000000" points="548.5291,-1091.5 734.8464,-1091.5 "/>
<text text-anchor="middle" x="641.6877" y="-1076.3" font-family="Times,serif" font-size="14.00" fill="#000000"> </text>
</g>
<!-- CryptoCompare::CoinResponse -->
<g id="node5" class="node">
<title>CryptoCompare::CoinResponse</title>
<polygon fill="none" stroke="#000000" points="753.2498,-1069.5 753.2498,-1113.5 948.1257,-1113.5 948.1257,-1069.5 753.2498,-1069.5"/>
<text text-anchor="middle" x="850.6877" y="-1098.3" font-family="Times,serif" font-size="14.00" fill="#000000">CryptoCompare::CoinResponse</text>
<polyline fill="none" stroke="#000000" points="753.2498,-1091.5 948.1257,-1091.5 "/>
<text text-anchor="middle" x="850.6877" y="-1076.3" font-family="Times,serif" font-size="14.00" fill="#000000"> </text>
</g>
<!-- Balance -->
<g id="node6" class="node">
<title>Balance</title>
<path fill="none" stroke="#000000" d="M972.7942,-445.5C972.7942,-445.5 1206.5813,-445.5 1206.5813,-445.5 1212.5813,-445.5 1218.5813,-451.5 1218.5813,-457.5 1218.5813,-457.5 1218.5813,-617.5 1218.5813,-617.5 1218.5813,-623.5 1212.5813,-629.5 1206.5813,-629.5 1206.5813,-629.5 972.7942,-629.5 972.7942,-629.5 966.7942,-629.5 960.7942,-623.5 960.7942,-617.5 960.7942,-617.5 960.7942,-457.5 960.7942,-457.5 960.7942,-451.5 966.7942,-445.5 972.7942,-445.5"/>
<text text-anchor="middle" x="1089.6877" y="-614.3" font-family="Times,serif" font-size="14.00" fill="#000000">Balance</text>
<polyline fill="none" stroke="#000000" points="960.7942,-607.5 1218.5813,-607.5 "/>
<text text-anchor="start" x="968.7942" y="-592.3" font-family="Times,serif" font-size="14.00" fill="#000000">breakeven_price :character varying</text>
<text text-anchor="start" x="968.7942" y="-578.3" font-family="Times,serif" font-size="14.00" fill="#000000">wallet_id :integer</text>
<text text-anchor="start" x="968.7942" y="-564.3" font-family="Times,serif" font-size="14.00" fill="#000000">amount :double precision</text>
<text text-anchor="start" x="968.7942" y="-550.3" font-family="Times,serif" font-size="14.00" fill="#000000">avg_buy_price_in_btc :double precision</text>
<text text-anchor="start" x="968.7942" y="-536.3" font-family="Times,serif" font-size="14.00" fill="#000000">avg_sell_price_in_btc :double precision</text>
<text text-anchor="start" x="968.7942" y="-522.3" font-family="Times,serif" font-size="14.00" fill="#000000">created_at :timestamp without time zone</text>
<text text-anchor="start" x="968.7942" y="-508.3" font-family="Times,serif" font-size="14.00" fill="#000000">updated_at :timestamp without time zone</text>
<text text-anchor="start" x="968.7942" y="-494.3" font-family="Times,serif" font-size="14.00" fill="#000000">avg_buy_price_per_unit :character varying</text>
<text text-anchor="start" x="968.7942" y="-480.3" font-family="Times,serif" font-size="14.00" fill="#000000">avg_sell_price_per_unit :character varying</text>
<text text-anchor="start" x="968.7942" y="-466.3" font-family="Times,serif" font-size="14.00" fill="#000000">avg_price_per_unit :character varying</text>
<text text-anchor="start" x="968.7942" y="-452.3" font-family="Times,serif" font-size="14.00" fill="#000000">id :bigint</text>
</g>
<!-- Tx -->
<g id="node7" class="node">
<title>Tx</title>
<path fill="none" stroke="#000000" d="M938.1907,-.5C938.1907,-.5 1241.1848,-.5 1241.1848,-.5 1247.1848,-.5 1253.1848,-6.5 1253.1848,-12.5 1253.1848,-12.5 1253.1848,-396.5 1253.1848,-396.5 1253.1848,-402.5 1247.1848,-408.5 1241.1848,-408.5 1241.1848,-408.5 938.1907,-408.5 938.1907,-408.5 932.1907,-408.5 926.1907,-402.5 926.1907,-396.5 926.1907,-396.5 926.1907,-12.5 926.1907,-12.5 926.1907,-6.5 932.1907,-.5 938.1907,-.5"/>
<text text-anchor="middle" x="1089.6877" y="-393.3" font-family="Times,serif" font-size="14.00" fill="#000000">Tx</text>
<polyline fill="none" stroke="#000000" points="926.1907,-386.5 1253.1848,-386.5 "/>
<text text-anchor="start" x="934.1907" y="-371.3" font-family="Times,serif" font-size="14.00" fill="#000000">value_in_btc_at_time_of_movement :character varying</text>
<text text-anchor="start" x="934.1907" y="-357.3" font-family="Times,serif" font-size="14.00" fill="#000000">balance_id :integer</text>
<text text-anchor="start" x="934.1907" y="-343.3" font-family="Times,serif" font-size="14.00" fill="#000000">timestamp :character varying</text>
<text text-anchor="start" x="934.1907" y="-329.3" font-family="Times,serif" font-size="14.00" fill="#000000">type :character varying</text>
<text text-anchor="start" x="934.1907" y="-315.3" font-family="Times,serif" font-size="14.00" fill="#000000">amount :character varying</text>
<text text-anchor="start" x="934.1907" y="-301.3" font-family="Times,serif" font-size="14.00" fill="#000000">written_off :boolean</text>
<text text-anchor="start" x="934.1907" y="-287.3" font-family="Times,serif" font-size="14.00" fill="#000000">created_at :timestamp without time zone</text>
<text text-anchor="start" x="934.1907" y="-273.3" font-family="Times,serif" font-size="14.00" fill="#000000">updated_at :timestamp without time zone</text>
<text text-anchor="start" x="934.1907" y="-259.3" font-family="Times,serif" font-size="14.00" fill="#000000">tid :character varying</text>
<text text-anchor="start" x="934.1907" y="-245.3" font-family="Times,serif" font-size="14.00" fill="#000000">order_id :character varying</text>
<text text-anchor="start" x="934.1907" y="-231.3" font-family="Times,serif" font-size="14.00" fill="#000000">price :character varying</text>
<text text-anchor="start" x="934.1907" y="-217.3" font-family="Times,serif" font-size="14.00" fill="#000000">pair :character varying</text>
<text text-anchor="start" x="934.1907" y="-203.3" font-family="Times,serif" font-size="14.00" fill="#000000">fee_currency :character varying</text>
<text text-anchor="start" x="934.1907" y="-189.3" font-family="Times,serif" font-size="14.00" fill="#000000">fee_amount :character varying</text>
<text text-anchor="start" x="934.1907" y="-175.3" font-family="Times,serif" font-size="14.00" fill="#000000">fee :character varying</text>
<text text-anchor="start" x="934.1907" y="-161.3" font-family="Times,serif" font-size="14.00" fill="#000000">timestamp_created :character varying</text>
<text text-anchor="start" x="934.1907" y="-147.3" font-family="Times,serif" font-size="14.00" fill="#000000">txid :character varying</text>
<text text-anchor="start" x="934.1907" y="-133.3" font-family="Times,serif" font-size="14.00" fill="#000000">description :text</text>
<text text-anchor="start" x="934.1907" y="-119.3" font-family="Times,serif" font-size="14.00" fill="#000000">status :character varying</text>
<text text-anchor="start" x="934.1907" y="-105.3" font-family="Times,serif" font-size="14.00" fill="#000000">address :character varying</text>
<text text-anchor="start" x="934.1907" y="-91.3" font-family="Times,serif" font-size="14.00" fill="#000000">currency :character varying</text>
<text text-anchor="start" x="934.1907" y="-77.3" font-family="Times,serif" font-size="14.00" fill="#000000">method :character varying</text>
<text text-anchor="start" x="934.1907" y="-63.3" font-family="Times,serif" font-size="14.00" fill="#000000">order_type :character varying</text>
<text text-anchor="start" x="934.1907" y="-49.3" font-family="Times,serif" font-size="14.00" fill="#000000">movement_type :character varying</text>
<text text-anchor="start" x="934.1907" y="-35.3" font-family="Times,serif" font-size="14.00" fill="#000000">remote_id :character varying</text>
<text text-anchor="start" x="934.1907" y="-21.3" font-family="Times,serif" font-size="14.00" fill="#000000">invalidated :boolean</text>
<text text-anchor="start" x="934.1907" y="-7.3" font-family="Times,serif" font-size="14.00" fill="#000000">id :bigint</text>
</g>
<!-- Balance&#45;&gt;Tx -->
<g id="edge1" class="edge">
<title>Balance&#45;&gt;Tx</title>
<path fill="none" stroke="#f08078" d="M1089.6877,-437.178C1089.6877,-431.2793 1089.6877,-425.2482 1089.6877,-419.122"/>
<ellipse fill="none" stroke="#f08078" cx="1089.6878" cy="-441.1832" rx="4" ry="4"/>
<polygon fill="#f08078" stroke="#f08078" points="1089.6878,-418.7288 1094.1877,-408.7288 1089.6878,-413.7288 1089.6877,-408.7288 1089.6877,-408.7288 1089.6877,-408.7288 1089.6878,-413.7288 1085.1877,-408.7289 1089.6878,-418.7288 1089.6878,-418.7288"/>
</g>
<!-- Wallet -->
<g id="node8" class="node">
<title>Wallet</title>
<path fill="none" stroke="#000000" d="M977.8254,-666.5C977.8254,-666.5 1201.55,-666.5 1201.55,-666.5 1207.55,-666.5 1213.55,-672.5 1213.55,-678.5 1213.55,-678.5 1213.55,-838.5 1213.55,-838.5 1213.55,-844.5 1207.55,-850.5 1201.55,-850.5 1201.55,-850.5 977.8254,-850.5 977.8254,-850.5 971.8254,-850.5 965.8254,-844.5 965.8254,-838.5 965.8254,-838.5 965.8254,-678.5 965.8254,-678.5 965.8254,-672.5 971.8254,-666.5 977.8254,-666.5"/>
<text text-anchor="middle" x="1089.6877" y="-835.3" font-family="Times,serif" font-size="14.00" fill="#000000">Wallet</text>
<polyline fill="none" stroke="#000000" points="965.8254,-828.5 1213.55,-828.5 "/>
<text text-anchor="start" x="973.8254" y="-813.3" font-family="Times,serif" font-size="14.00" fill="#000000">is_penny_coin :boolean</text>
<text text-anchor="start" x="973.8254" y="-799.3" font-family="Times,serif" font-size="14.00" fill="#000000">exchange_id :integer</text>
<text text-anchor="start" x="973.8254" y="-785.3" font-family="Times,serif" font-size="14.00" fill="#000000">name :character varying</text>
<text text-anchor="start" x="973.8254" y="-771.3" font-family="Times,serif" font-size="14.00" fill="#000000">ticker :character varying</text>
<text text-anchor="start" x="973.8254" y="-757.3" font-family="Times,serif" font-size="14.00" fill="#000000">amount :character varying</text>
<text text-anchor="start" x="973.8254" y="-743.3" font-family="Times,serif" font-size="14.00" fill="#000000">available :character varying</text>
<text text-anchor="start" x="973.8254" y="-729.3" font-family="Times,serif" font-size="14.00" fill="#000000">wallet_type :character varying</text>
<text text-anchor="start" x="973.8254" y="-715.3" font-family="Times,serif" font-size="14.00" fill="#000000">created_at :timestamp without time zone</text>
<text text-anchor="start" x="973.8254" y="-701.3" font-family="Times,serif" font-size="14.00" fill="#000000">updated_at :timestamp without time zone</text>
<text text-anchor="start" x="973.8254" y="-687.3" font-family="Times,serif" font-size="14.00" fill="#000000">avg_cost_per_unit :character varying</text>
<text text-anchor="start" x="973.8254" y="-673.3" font-family="Times,serif" font-size="14.00" fill="#000000">id :bigint</text>
</g>
<!-- Wallet&#45;&gt;Balance -->
<g id="edge2" class="edge">
<title>Wallet&#45;&gt;Balance</title>
<path fill="none" stroke="#83d4aa" d="M1089.6877,-658.1259C1089.6877,-651.4986 1089.6877,-644.8224 1089.6877,-638.1936"/>
<ellipse fill="none" stroke="#83d4aa" cx="1089.6878" cy="-662.3764" rx="4" ry="4"/>
<ellipse fill="#83d4aa" stroke="#83d4aa" cx="1089.6878" cy="-633.8297" rx="4" ry="4"/>
</g>
<!-- Movement -->
<g id="node9" class="node">
<title>Movement</title>
<path fill="none" stroke="#000000" d="M1243.1907,-887.5C1243.1907,-887.5 1546.1848,-887.5 1546.1848,-887.5 1552.1848,-887.5 1558.1848,-893.5 1558.1848,-899.5 1558.1848,-899.5 1558.1848,-1283.5 1558.1848,-1283.5 1558.1848,-1289.5 1552.1848,-1295.5 1546.1848,-1295.5 1546.1848,-1295.5 1243.1907,-1295.5 1243.1907,-1295.5 1237.1907,-1295.5 1231.1907,-1289.5 1231.1907,-1283.5 1231.1907,-1283.5 1231.1907,-899.5 1231.1907,-899.5 1231.1907,-893.5 1237.1907,-887.5 1243.1907,-887.5"/>
<text text-anchor="middle" x="1394.6877" y="-1280.3" font-family="Times,serif" font-size="14.00" fill="#000000">Movement</text>
<polyline fill="none" stroke="#000000" points="1231.1907,-1273.5 1558.1848,-1273.5 "/>
<text text-anchor="start" x="1239.1907" y="-1258.3" font-family="Times,serif" font-size="14.00" fill="#000000">value_in_btc_at_time_of_movement :character varying</text>
<text text-anchor="start" x="1239.1907" y="-1244.3" font-family="Times,serif" font-size="14.00" fill="#000000">balance_id :integer</text>
<text text-anchor="start" x="1239.1907" y="-1230.3" font-family="Times,serif" font-size="14.00" fill="#000000">timestamp :character varying</text>
<text text-anchor="start" x="1239.1907" y="-1216.3" font-family="Times,serif" font-size="14.00" fill="#000000">type :character varying</text>
<text text-anchor="start" x="1239.1907" y="-1202.3" font-family="Times,serif" font-size="14.00" fill="#000000">amount :character varying</text>
<text text-anchor="start" x="1239.1907" y="-1188.3" font-family="Times,serif" font-size="14.00" fill="#000000">written_off :boolean</text>
<text text-anchor="start" x="1239.1907" y="-1174.3" font-family="Times,serif" font-size="14.00" fill="#000000">created_at :timestamp without time zone</text>
<text text-anchor="start" x="1239.1907" y="-1160.3" font-family="Times,serif" font-size="14.00" fill="#000000">updated_at :timestamp without time zone</text>
<text text-anchor="start" x="1239.1907" y="-1146.3" font-family="Times,serif" font-size="14.00" fill="#000000">tid :character varying</text>
<text text-anchor="start" x="1239.1907" y="-1132.3" font-family="Times,serif" font-size="14.00" fill="#000000">order_id :character varying</text>
<text text-anchor="start" x="1239.1907" y="-1118.3" font-family="Times,serif" font-size="14.00" fill="#000000">price :character varying</text>
<text text-anchor="start" x="1239.1907" y="-1104.3" font-family="Times,serif" font-size="14.00" fill="#000000">pair :character varying</text>
<text text-anchor="start" x="1239.1907" y="-1090.3" font-family="Times,serif" font-size="14.00" fill="#000000">fee_currency :character varying</text>
<text text-anchor="start" x="1239.1907" y="-1076.3" font-family="Times,serif" font-size="14.00" fill="#000000">fee_amount :character varying</text>
<text text-anchor="start" x="1239.1907" y="-1062.3" font-family="Times,serif" font-size="14.00" fill="#000000">fee :character varying</text>
<text text-anchor="start" x="1239.1907" y="-1048.3" font-family="Times,serif" font-size="14.00" fill="#000000">timestamp_created :character varying</text>
<text text-anchor="start" x="1239.1907" y="-1034.3" font-family="Times,serif" font-size="14.00" fill="#000000">txid :character varying</text>
<text text-anchor="start" x="1239.1907" y="-1020.3" font-family="Times,serif" font-size="14.00" fill="#000000">description :text</text>
<text text-anchor="start" x="1239.1907" y="-1006.3" font-family="Times,serif" font-size="14.00" fill="#000000">status :character varying</text>
<text text-anchor="start" x="1239.1907" y="-992.3" font-family="Times,serif" font-size="14.00" fill="#000000">address :character varying</text>
<text text-anchor="start" x="1239.1907" y="-978.3" font-family="Times,serif" font-size="14.00" fill="#000000">currency :character varying</text>
<text text-anchor="start" x="1239.1907" y="-964.3" font-family="Times,serif" font-size="14.00" fill="#000000">method :character varying</text>
<text text-anchor="start" x="1239.1907" y="-950.3" font-family="Times,serif" font-size="14.00" fill="#000000">order_type :character varying</text>
<text text-anchor="start" x="1239.1907" y="-936.3" font-family="Times,serif" font-size="14.00" fill="#000000">movement_type :character varying</text>
<text text-anchor="start" x="1239.1907" y="-922.3" font-family="Times,serif" font-size="14.00" fill="#000000">remote_id :character varying</text>
<text text-anchor="start" x="1239.1907" y="-908.3" font-family="Times,serif" font-size="14.00" fill="#000000">invalidated :boolean</text>
<text text-anchor="start" x="1239.1907" y="-894.3" font-family="Times,serif" font-size="14.00" fill="#000000">id :bigint</text>
</g>
<!-- Trade -->
<g id="node10" class="node">
<title>Trade</title>
<path fill="none" stroke="#000000" d="M1588.1907,-887.5C1588.1907,-887.5 1891.1848,-887.5 1891.1848,-887.5 1897.1848,-887.5 1903.1848,-893.5 1903.1848,-899.5 1903.1848,-899.5 1903.1848,-1283.5 1903.1848,-1283.5 1903.1848,-1289.5 1897.1848,-1295.5 1891.1848,-1295.5 1891.1848,-1295.5 1588.1907,-1295.5 1588.1907,-1295.5 1582.1907,-1295.5 1576.1907,-1289.5 1576.1907,-1283.5 1576.1907,-1283.5 1576.1907,-899.5 1576.1907,-899.5 1576.1907,-893.5 1582.1907,-887.5 1588.1907,-887.5"/>
<text text-anchor="middle" x="1739.6877" y="-1280.3" font-family="Times,serif" font-size="14.00" fill="#000000">Trade</text>
<polyline fill="none" stroke="#000000" points="1576.1907,-1273.5 1903.1848,-1273.5 "/>
<text text-anchor="start" x="1584.1907" y="-1258.3" font-family="Times,serif" font-size="14.00" fill="#000000">value_in_btc_at_time_of_movement :character varying</text>
<text text-anchor="start" x="1584.1907" y="-1244.3" font-family="Times,serif" font-size="14.00" fill="#000000">balance_id :integer</text>
<text text-anchor="start" x="1584.1907" y="-1230.3" font-family="Times,serif" font-size="14.00" fill="#000000">timestamp :character varying</text>
<text text-anchor="start" x="1584.1907" y="-1216.3" font-family="Times,serif" font-size="14.00" fill="#000000">type :character varying</text>
<text text-anchor="start" x="1584.1907" y="-1202.3" font-family="Times,serif" font-size="14.00" fill="#000000">amount :character varying</text>
<text text-anchor="start" x="1584.1907" y="-1188.3" font-family="Times,serif" font-size="14.00" fill="#000000">written_off :boolean</text>
<text text-anchor="start" x="1584.1907" y="-1174.3" font-family="Times,serif" font-size="14.00" fill="#000000">created_at :timestamp without time zone</text>
<text text-anchor="start" x="1584.1907" y="-1160.3" font-family="Times,serif" font-size="14.00" fill="#000000">updated_at :timestamp without time zone</text>
<text text-anchor="start" x="1584.1907" y="-1146.3" font-family="Times,serif" font-size="14.00" fill="#000000">tid :character varying</text>
<text text-anchor="start" x="1584.1907" y="-1132.3" font-family="Times,serif" font-size="14.00" fill="#000000">order_id :character varying</text>
<text text-anchor="start" x="1584.1907" y="-1118.3" font-family="Times,serif" font-size="14.00" fill="#000000">price :character varying</text>
<text text-anchor="start" x="1584.1907" y="-1104.3" font-family="Times,serif" font-size="14.00" fill="#000000">pair :character varying</text>
<text text-anchor="start" x="1584.1907" y="-1090.3" font-family="Times,serif" font-size="14.00" fill="#000000">fee_currency :character varying</text>
<text text-anchor="start" x="1584.1907" y="-1076.3" font-family="Times,serif" font-size="14.00" fill="#000000">fee_amount :character varying</text>
<text text-anchor="start" x="1584.1907" y="-1062.3" font-family="Times,serif" font-size="14.00" fill="#000000">fee :character varying</text>
<text text-anchor="start" x="1584.1907" y="-1048.3" font-family="Times,serif" font-size="14.00" fill="#000000">timestamp_created :character varying</text>
<text text-anchor="start" x="1584.1907" y="-1034.3" font-family="Times,serif" font-size="14.00" fill="#000000">txid :character varying</text>
<text text-anchor="start" x="1584.1907" y="-1020.3" font-family="Times,serif" font-size="14.00" fill="#000000">description :text</text>
<text text-anchor="start" x="1584.1907" y="-1006.3" font-family="Times,serif" font-size="14.00" fill="#000000">status :character varying</text>
<text text-anchor="start" x="1584.1907" y="-992.3" font-family="Times,serif" font-size="14.00" fill="#000000">address :character varying</text>
<text text-anchor="start" x="1584.1907" y="-978.3" font-family="Times,serif" font-size="14.00" fill="#000000">currency :character varying</text>
<text text-anchor="start" x="1584.1907" y="-964.3" font-family="Times,serif" font-size="14.00" fill="#000000">method :character varying</text>
<text text-anchor="start" x="1584.1907" y="-950.3" font-family="Times,serif" font-size="14.00" fill="#000000">order_type :character varying</text>
<text text-anchor="start" x="1584.1907" y="-936.3" font-family="Times,serif" font-size="14.00" fill="#000000">movement_type :character varying</text>
<text text-anchor="start" x="1584.1907" y="-922.3" font-family="Times,serif" font-size="14.00" fill="#000000">remote_id :character varying</text>
<text text-anchor="start" x="1584.1907" y="-908.3" font-family="Times,serif" font-size="14.00" fill="#000000">invalidated :boolean</text>
<text text-anchor="start" x="1584.1907" y="-894.3" font-family="Times,serif" font-size="14.00" fill="#000000">id :bigint</text>
</g>
<!-- Exchange -->
<g id="node11" class="node">
<title>Exchange</title>
<path fill="none" stroke="#000000" d="M977.8254,-1034.5C977.8254,-1034.5 1201.55,-1034.5 1201.55,-1034.5 1207.55,-1034.5 1213.55,-1040.5 1213.55,-1046.5 1213.55,-1046.5 1213.55,-1136.5 1213.55,-1136.5 1213.55,-1142.5 1207.55,-1148.5 1201.55,-1148.5 1201.55,-1148.5 977.8254,-1148.5 977.8254,-1148.5 971.8254,-1148.5 965.8254,-1142.5 965.8254,-1136.5 965.8254,-1136.5 965.8254,-1046.5 965.8254,-1046.5 965.8254,-1040.5 971.8254,-1034.5 977.8254,-1034.5"/>
<text text-anchor="middle" x="1089.6877" y="-1133.3" font-family="Times,serif" font-size="14.00" fill="#000000">Exchange</text>
<polyline fill="none" stroke="#000000" points="965.8254,-1126.5 1213.55,-1126.5 "/>
<text text-anchor="start" x="973.8254" y="-1111.3" font-family="Times,serif" font-size="14.00" fill="#000000">id :bigint</text>
<text text-anchor="start" x="973.8254" y="-1097.3" font-family="Times,serif" font-size="14.00" fill="#000000">name :character varying</text>
<text text-anchor="start" x="973.8254" y="-1083.3" font-family="Times,serif" font-size="14.00" fill="#000000">api :character varying</text>
<text text-anchor="start" x="973.8254" y="-1069.3" font-family="Times,serif" font-size="14.00" fill="#000000">nickname :character varying</text>
<text text-anchor="start" x="973.8254" y="-1055.3" font-family="Times,serif" font-size="14.00" fill="#000000">created_at :timestamp without time zone</text>
<text text-anchor="start" x="973.8254" y="-1041.3" font-family="Times,serif" font-size="14.00" fill="#000000">updated_at :timestamp without time zone</text>
</g>
<!-- Exchange&#45;&gt;Wallet -->
<g id="edge3" class="edge">
<title>Exchange&#45;&gt;Wallet</title>
<path fill="none" stroke="#1bb687" d="M1089.6877,-1026.0891C1089.6877,-979.0964 1089.6877,-914.8171 1089.6877,-861.0371"/>
<ellipse fill="none" stroke="#1bb687" cx="1089.6878" cy="-1030.2553" rx="4" ry="4"/>
<polygon fill="#1bb687" stroke="#1bb687" points="1089.6878,-860.7771 1094.1877,-850.7771 1089.6878,-855.7771 1089.6877,-850.7771 1089.6877,-850.7771 1089.6877,-850.7771 1089.6878,-855.7771 1085.1877,-850.7772 1089.6878,-860.7771 1089.6878,-860.7771"/>
</g>
<!-- ApplicationRecord -->
<g id="node12" class="node">
<title>ApplicationRecord</title>
<ellipse fill="none" stroke="#000000" cx="1998.6877" cy="-1091.5" rx="77.2916" ry="18"/>
<text text-anchor="middle" x="1998.6877" y="-1087.3" font-family="Times,serif" font-size="14.00" fill="#000000">ApplicationRecord</text>
</g>
</g>
</svg>
